<svg width="150" height="18.5" viewBox="0 0 266 33" fill="none" xmlns="http://www.w3.org/2000/svg">
<path d="M173.868 6.12726C172.006 5.05239 169.895 4.48651 167.745 4.48651C165.595 4.48651 163.483 5.05239 161.622 6.12726C159.76 7.20213 158.214 8.74813 157.139 10.6099C156.064 12.4716 155.498 14.5835 155.498 16.7332C155.498 18.883 156.064 20.9948 157.139 22.8566C158.214 24.7183 159.76 26.2643 161.622 27.3392C163.483 28.414 165.595 28.9799 167.745 28.9799C169.895 28.9799 172.006 28.414 173.868 27.3392" stroke="black" stroke-width="4" stroke-linecap="square"/>
<path d="M22.8525 6.12336C20.9908 5.04848 18.8789 4.48261 16.7292 4.48261C14.5795 4.48261 12.4676 5.04848 10.6059 6.12336C8.74416 7.19823 7.19817 8.74423 6.12331 10.606C5.04844 12.4677 4.48257 14.5796 4.48257 16.7293C4.48257 18.8791 5.04844 20.9909 6.12331 22.8527C7.19817 24.7144 8.74416 26.2604 10.6059 27.3353C12.4676 28.4101 14.5795 28.976 16.7292 28.976C18.8789 28.976 20.9908 28.4101 22.8525 27.3353" stroke="black" stroke-width="4" stroke-linecap="square"/>
<path d="M45.999 4.5C52.792 4.5 58.2987 10.0068 58.2988 16.7998C58.2988 23.593 52.7921 29.1006 45.999 29.1006C39.206 29.1005 33.6992 23.5929 33.6992 16.7998C33.6994 10.0068 39.2061 4.50011 45.999 4.5Z" stroke="black" stroke-width="4"/>
<path d="M105.999 4.5C112.792 4.5 118.299 10.0068 118.299 16.7998C118.299 23.593 112.792 29.1006 105.999 29.1006C99.206 29.1005 93.6992 23.5929 93.6992 16.7998C93.6994 10.0068 99.2061 4.50011 105.999 4.5Z" stroke="black" stroke-width="4"/>
<line x1="188.898" y1="2.5" x2="188.898" y2="31.0002" stroke="black" stroke-width="4"/>
<line x1="205.184" y1="2.5" x2="205.184" y2="31.0002" stroke="black" stroke-width="4"/>
<line x1="205.1" y1="17.668" x2="186.9" y2="17.668" stroke="black" stroke-width="4"/>
<line x1="234.375" y1="16.5786" x2="217.7" y2="16.5786" stroke="black" stroke-width="4"/>
<line x1="234.375" y1="4.5" x2="217.7" y2="4.5" stroke="black" stroke-width="4"/>
<line x1="234.375" y1="29" x2="217.7" y2="29" stroke="black" stroke-width="4"/>
<line x1="248.898" y1="15.709" x2="248.898" y2="31.0002" stroke="black" stroke-width="4"/>
<line x1="258.682" y1="17.709" x2="246.9" y2="17.709" stroke="black" stroke-width="4"/>
<line x1="265.1" y1="4.3999" x2="246.9" y2="4.3999" stroke="black" stroke-width="4"/>
<line x1="71.9004" y1="2.5" x2="71.9004" y2="29.8002" stroke="black" stroke-width="4"/>
<line x1="82" y1="29.0317" x2="69.9" y2="29.0317" stroke="black" stroke-width="4"/>
<line y1="-2" x2="13.0536" y2="-2" transform="matrix(0.707104 0.707109 -0.707104 0.707109 132.967 21.8696)" stroke="black" stroke-width="4"/>
<path d="M132.8 4.5C145.47 4.5 145.47 21.4503 132.8 21.4503" stroke="black" stroke-width="4"/>
</svg>
