<svg width="19" height="19" viewBox="0 0 19 19" fill="none" xmlns="http://www.w3.org/2000/svg">
<path fill-rule="evenodd" clip-rule="evenodd" d="M17.9995 8.89954C16.729 10.1958 14.9584 11 13 11C9.134 11 6 7.86597 6 4C6 2.59741 6.41249 1.29126 7.12279 0.196045C3.05328 1.05945 0 4.67322 0 9C0 13.9706 4.02943 18 9 18C13.9706 18 18 13.9706 18 9C18 8.96643 17.9998 8.93298 17.9995 8.89954Z" fill="#FFED4D"/>
<rect y="13" width="19" height="6" rx="1" fill="#FF93A6"/>
<path d="M0 14C0 13.4477 0.447715 13 1 13H17.1V19H1C0.447717 19 0 18.5523 0 18V14Z" fill="#FF1842"/>
<path d="M0 14C0 13.4477 0.447715 13 1 13H11.4V19H1C0.447715 19 0 18.5523 0 18V14Z" fill="#020A20"/>
</svg>
