<svg width="19" height="8" viewBox="0 0 19 8" fill="none" xmlns="http://www.w3.org/2000/svg">
<rect x="1" y="1" width="18" height="7" rx="1" fill="#FF7C8C"/>
<rect width="18" height="7" rx="1" fill="#FF1842"/>
<path d="M5.80002 2.908C5.92202 2.942 6.01602 3.004 6.08202 3.094C6.15002 3.184 6.18402 3.294 6.18402 3.424C6.18402 3.604 6.11902 3.745 5.98902 3.847C5.86102 3.949 5.68402 4 5.45802 4H4.68402C4.62602 4 4.58002 3.984 4.54602 3.952C4.51402 3.92 4.49802 3.875 4.49802 3.817V2.068C4.49802 2.01 4.51402 1.965 4.54602 1.933C4.58002 1.901 4.62602 1.885 4.68402 1.885H5.42802C5.64802 1.885 5.82002 1.934 5.94402 2.032C6.07002 2.128 6.13302 2.263 6.13302 2.437C6.13302 2.549 6.10302 2.646 6.04302 2.728C5.98502 2.81 5.90402 2.87 5.80002 2.908ZM4.87602 2.776H5.36502C5.63102 2.776 5.76402 2.677 5.76402 2.479C5.76402 2.379 5.73102 2.305 5.66502 2.257C5.59902 2.209 5.49902 2.185 5.36502 2.185H4.87602V2.776ZM5.41602 3.7C5.55602 3.7 5.65802 3.675 5.72202 3.625C5.78602 3.575 5.81802 3.497 5.81802 3.391C5.81802 3.285 5.78502 3.206 5.71902 3.154C5.65502 3.102 5.55402 3.076 5.41602 3.076H4.87602V3.7H5.41602ZM7.67087 2.503C7.72887 2.503 7.77487 2.519 7.80887 2.551C7.84287 2.583 7.85987 2.626 7.85987 2.68V3.844C7.85987 3.896 7.84187 3.938 7.80587 3.97C7.77187 4.002 7.72687 4.018 7.67087 4.018C7.61687 4.018 7.57387 4.003 7.54187 3.973C7.50987 3.943 7.49387 3.902 7.49387 3.85V3.775C7.44787 3.855 7.38587 3.917 7.30787 3.961C7.22987 4.003 7.14187 4.024 7.04387 4.024C6.68387 4.024 6.50387 3.822 6.50387 3.418V2.68C6.50387 2.626 6.52087 2.583 6.55487 2.551C6.58887 2.519 6.63387 2.503 6.68987 2.503C6.74787 2.503 6.79387 2.519 6.82787 2.551C6.86187 2.583 6.87887 2.626 6.87887 2.68V3.421C6.87887 3.525 6.89987 3.602 6.94187 3.652C6.98387 3.702 7.04987 3.727 7.13987 3.727C7.24387 3.727 7.32687 3.693 7.38887 3.625C7.45287 3.555 7.48487 3.463 7.48487 3.349V2.68C7.48487 2.626 7.50187 2.583 7.53587 2.551C7.56987 2.519 7.61487 2.503 7.67087 2.503ZM9.01218 3.739C9.11218 3.745 9.16218 3.79 9.16218 3.874C9.16218 3.922 9.14218 3.959 9.10218 3.985C9.06418 4.009 9.00918 4.019 8.93718 4.015L8.85618 4.009C8.52018 3.985 8.35218 3.805 8.35218 3.469V2.815H8.20218C8.14818 2.815 8.10618 2.803 8.07618 2.779C8.04818 2.755 8.03418 2.72 8.03418 2.674C8.03418 2.628 8.04818 2.593 8.07618 2.569C8.10618 2.545 8.14818 2.533 8.20218 2.533H8.35218V2.257C8.35218 2.203 8.36918 2.16 8.40318 2.128C8.43718 2.096 8.48318 2.08 8.54118 2.08C8.59718 2.08 8.64218 2.096 8.67618 2.128C8.71018 2.16 8.72718 2.203 8.72718 2.257V2.533H8.98218C9.03618 2.533 9.07718 2.545 9.10518 2.569C9.13518 2.593 9.15018 2.628 9.15018 2.674C9.15018 2.72 9.13518 2.755 9.10518 2.779C9.07718 2.803 9.03618 2.815 8.98218 2.815H8.72718V3.496C8.72718 3.644 8.79518 3.723 8.93118 3.733L9.01218 3.739ZM10.0991 3.739C10.1991 3.745 10.2491 3.79 10.2491 3.874C10.2491 3.922 10.2291 3.959 10.1891 3.985C10.1511 4.009 10.0961 4.019 10.0241 4.015L9.94309 4.009C9.60709 3.985 9.43909 3.805 9.43909 3.469V2.815H9.28909C9.23509 2.815 9.19309 2.803 9.16309 2.779C9.13509 2.755 9.12109 2.72 9.12109 2.674C9.12109 2.628 9.13509 2.593 9.16309 2.569C9.19309 2.545 9.23509 2.533 9.28909 2.533H9.43909V2.257C9.43909 2.203 9.45609 2.16 9.49009 2.128C9.52409 2.096 9.57009 2.08 9.62809 2.08C9.68409 2.08 9.72909 2.096 9.76309 2.128C9.79709 2.16 9.81409 2.203 9.81409 2.257V2.533H10.0691C10.1231 2.533 10.1641 2.545 10.1921 2.569C10.2221 2.593 10.2371 2.628 10.2371 2.674C10.2371 2.72 10.2221 2.755 10.1921 2.779C10.1641 2.803 10.1231 2.815 10.0691 2.815H9.81409V3.496C9.81409 3.644 9.88209 3.723 10.0181 3.733L10.0991 3.739ZM11.1135 4.024C10.9635 4.024 10.8315 3.993 10.7175 3.931C10.6055 3.869 10.5185 3.78 10.4565 3.664C10.3945 3.548 10.3635 3.413 10.3635 3.259C10.3635 3.105 10.3945 2.971 10.4565 2.857C10.5185 2.741 10.6055 2.652 10.7175 2.59C10.8315 2.528 10.9635 2.497 11.1135 2.497C11.2635 2.497 11.3945 2.528 11.5065 2.59C11.6205 2.652 11.7075 2.741 11.7675 2.857C11.8295 2.971 11.8605 3.105 11.8605 3.259C11.8605 3.413 11.8295 3.548 11.7675 3.664C11.7075 3.78 11.6205 3.869 11.5065 3.931C11.3945 3.993 11.2635 4.024 11.1135 4.024ZM11.1105 3.733C11.2325 3.733 11.3255 3.693 11.3895 3.613C11.4535 3.533 11.4855 3.415 11.4855 3.259C11.4855 3.105 11.4535 2.988 11.3895 2.908C11.3255 2.826 11.2335 2.785 11.1135 2.785C10.9935 2.785 10.9005 2.826 10.8345 2.908C10.7705 2.988 10.7385 3.105 10.7385 3.259C10.7385 3.415 10.7705 3.533 10.8345 3.613C10.8985 3.693 10.9905 3.733 11.1105 3.733ZM13.0221 2.497C13.1981 2.497 13.3291 2.547 13.4151 2.647C13.5011 2.747 13.5441 2.898 13.5441 3.1V3.838C13.5441 3.894 13.5271 3.938 13.4931 3.97C13.4611 4.002 13.4161 4.018 13.3581 4.018C13.3001 4.018 13.2541 4.002 13.2201 3.97C13.1861 3.938 13.1691 3.894 13.1691 3.838V3.121C13.1691 3.007 13.1471 2.924 13.1031 2.872C13.0611 2.82 12.9941 2.794 12.9021 2.794C12.7941 2.794 12.7071 2.828 12.6411 2.896C12.5771 2.964 12.5451 3.055 12.5451 3.169V3.838C12.5451 3.894 12.5281 3.938 12.4941 3.97C12.4601 4.002 12.4141 4.018 12.3561 4.018C12.2981 4.018 12.2521 4.002 12.2181 3.97C12.1861 3.938 12.1701 3.894 12.1701 3.838V2.677C12.1701 2.625 12.1871 2.583 12.2211 2.551C12.2551 2.519 12.3011 2.503 12.3591 2.503C12.4111 2.503 12.4531 2.519 12.4851 2.551C12.5191 2.581 12.5361 2.621 12.5361 2.671V2.752C12.5861 2.67 12.6531 2.607 12.7371 2.563C12.8211 2.519 12.9161 2.497 13.0221 2.497Z" fill="white"/>
</svg>
