<svg width="20" height="46" viewBox="0 0 20 46" fill="none" xmlns="http://www.w3.org/2000/svg">
<rect x="8" y="26.9999" width="4" height="19" rx="2" fill="#D2B397"/>
<path d="M1 8.99988C1 4.02932 5.02944 -0.00012207 10 -0.00012207C14.9706 -0.00012207 19 4.02931 19 8.99988V28.9999C19 30.1044 18.1046 30.9999 17 30.9999H3C1.89543 30.9999 1 30.1044 1 28.9999V8.99988Z" fill="#E6D2FF"/>
<path d="M1.0917 9.4999C1.378 5.17411 4.71193 1.01097 10.5917 1.00002C15.2861 0.991273 19.0917 3.9998 19.0917 9.4999V20.9999C19.0917 22 17.0917 16.5 15.0917 18.9999C13.0917 21.4998 11.0917 19.5 11.0917 16.9999C11.0917 14.4998 7.59168 12.9999 6.59169 16.9999C5.59171 20.9999 1.0917 17.4999 1.0917 17.4999C1.0917 17.4999 0.885377 12.6173 1.0917 9.4999Z" fill="#F4EBFF"/>
<path d="M0.999993 8.4999C1.28629 4.17411 4.62023 0.0109735 10.5 1.90153e-05C15.1944 -0.008727 19 2.9998 19 8.4999V19.9999C19 21 17 15.5 15 17.9999C13 20.4998 11 18.5 11 15.9999C11 13.4998 7.49998 11.9999 6.49999 15.9999C5.5 19.9999 0.999993 16.4999 0.999993 16.4999C0.999993 16.4999 0.793672 11.6173 0.999993 8.4999Z" fill="#C89DFF"/>
<rect x="6.6994" y="5.8999" width="1" height="2" rx="0.5" transform="rotate(36.8381 6.6994 5.8999)" fill="#FFC8F0"/>
<rect x="10.1991" y="7" width="1" height="2" rx="0.5" transform="rotate(36.8381 10.1991 7)" fill="#FFC8F0"/>
<rect x="15.1991" y="8" width="1" height="2" rx="0.5" transform="rotate(36.8381 15.1991 8)" fill="#FFC8F0"/>
<rect x="12.1991" y="3" width="1" height="2" rx="0.5" transform="rotate(36.8381 12.1991 3)" fill="#FDFF8B"/>
<rect x="12.3708" y="5.17578" width="1" height="2" rx="0.5" transform="rotate(-7.66479 12.3708 5.17578)" fill="#A3DEFF"/>
<rect x="6" y="9.1333" width="1" height="2" rx="0.5" transform="rotate(-7.66479 6 9.1333)" fill="#A3DEFF"/>
<rect x="3" y="12.1333" width="1" height="2" rx="0.5" transform="rotate(-7.66479 3 12.1333)" fill="#FDFF8B"/>
<rect x="14" y="13.1333" width="1" height="2" rx="0.5" transform="rotate(-7.66479 14 13.1333)" fill="#FF94E1"/>
<rect x="9.19485" y="10.0273" width="1" height="2" rx="0.5" transform="rotate(3.72111 9.19485 10.0273)" fill="#FF94E1"/>
<rect x="3.12979" y="7" width="1" height="2" rx="0.5" transform="rotate(3.72111 3.12979 7)" fill="#A3DEFF"/>
<rect x="6.48892" y="3.72278" width="1" height="2" rx="0.5" transform="rotate(-47.4701 6.48892 3.72278)" fill="#FF94E1"/>
<rect x="16" y="11.7369" width="1" height="2" rx="0.5" transform="rotate(-47.4701 16 11.7369)" fill="#FFC8F0"/>
</svg>
