<svg width="21" height="44" viewBox="0 0 21 44" fill="none" xmlns="http://www.w3.org/2000/svg">
<path d="M0 5H21L17 43C17 43 13.0459 43.5 10.5 43.5C7.95409 43.5 4 43 4 43L0 5Z" fill="#FFFDFB"/>
<path d="M2 18C2 18 7.15765 19 10.5 19C13.8424 19 19 18 19 18L16.5 42C16.5 42 12.8513 42.5 10.5 42.5C8.14873 42.5 4.5 42 4.5 42L2 18Z" fill="#FFA14A"/>
<circle cx="6" cy="22" r="2" fill="#FFB571"/>
<circle cx="9" cy="27" r="1" fill="#FFB571"/>
<circle cx="11" cy="22" r="1" fill="#FFB571"/>
<circle cx="7" cy="32" r="1" fill="#FFB571"/>
<circle cx="13" cy="32" r="2" fill="#FFB571"/>
<rect x="18.2131" y="0.247314" width="1" height="29" transform="rotate(12.7526 18.2131 0.247314)" fill="#FFE7CB"/>
<ellipse cx="10.5" cy="18" rx="8.5" ry="1" fill="#FF8A1E"/>
</svg>
