<?xml version="1.0" encoding="utf-8"?>
<!-- Generator: Adobe Illustrator 21.0.0, SVG Export Plug-In . SVG Version: 6.00 Build 0)  -->
<svg version="1.1" id="Layer_1" xmlns="http://www.w3.org/2000/svg" xmlns:xlink="http://www.w3.org/1999/xlink" x="0px" y="0px"
	 viewBox="0 0 500 500" style="enable-background:new 0 0 500 500;" xml:space="preserve">
<style type="text/css">
	.st0{fill:url(#SVGID_1_);}
	.st1{fill:#FFFFFF;}
	.st2{fill:none;stroke:#DDDDDD;stroke-width:5.8118;stroke-linecap:round;stroke-linejoin:round;stroke-miterlimit:10;}
	.st3{fill:#DDDDDD;}
	.st4{fill:none;stroke:#DDDDDD;stroke-width:6.4054;stroke-linecap:round;stroke-linejoin:round;stroke-miterlimit:10;}
</style>
<g>
	<g>
		<linearGradient id="SVGID_1_" gradientUnits="userSpaceOnUse" x1="153.0882" y1="41.1413" x2="362.0521" y2="489.2658">
			<stop  offset="0" style="stop-color:#E5B2CA"/>
			<stop  offset="0.8595" style="stop-color:#7028E4"/>
		</linearGradient>
		<path class="st0" d="M496,249c0,103.7-64.1,192.4-154.9,228.5c-28.2,11.2-58.9,17.4-91.1,17.4c-32.2,0-62.9-6.2-91-17.4
			C68.2,441.4,4,352.7,4,249C4,113.1,114.2,3,250,3S496,113.1,496,249z"/>
	</g>
	<g>
		<g>
			<g>
				<path class="st1" d="M341.1,477.5V497H159v-19.5c28.2,11.2,58.9,17.4,91,17.4C282.2,494.9,312.9,488.8,341.1,477.5z"/>
			</g>
			<g>
				<path class="st1" d="M405,280c0,37-28,67.4-63.9,71.3v126.2c-28.2,11.2-58.9,17.4-91.1,17.4c-32.2,0-62.9-6.2-91-17.4V351.7
					c-39.6,0-71.7-32.1-71.7-71.7c0-39.6,32.1-71.7,71.7-71.7c1.4,0,2.7,0,4.1,0.1c11.5-37.1,46.1-64,87-64c40.9,0,75.5,26.9,87,64
					C374.9,210.4,405,241.7,405,280z"/>
			</g>
			<path class="st2" d="M334.3,211.3c1.7,5,4.9,16.6,1.9,31c-3.1,14.7-10.9,24.2-14.5,28.1"/>
			<path class="st2" d="M156.1,292.6c-7.6,19.2-4.8,40.8,7.7,56.2c15.2,18.7,42.1,25.3,65.9,15.5"/>
			<g>
				<circle class="st3" cx="182.2" cy="474.7" r="6.8"/>
				<circle class="st3" cx="216.1" cy="474.7" r="6.8"/>
				<circle class="st3" cx="250" cy="474.7" r="6.8"/>
				<circle class="st3" cx="283.9" cy="474.7" r="6.8"/>
				<circle class="st3" cx="317.8" cy="474.7" r="6.8"/>
			</g>
		</g>
		<line class="st4" x1="182.7" y1="444.3" x2="182.7" y2="372.6"/>
		<line class="st4" x1="283.9" y1="444.3" x2="283.9" y2="372.6"/>
		<line class="st4" x1="317.3" y1="444.3" x2="317.3" y2="372.6"/>
		<line class="st4" x1="216.1" y1="444.3" x2="216.1" y2="372.6"/>
		<line class="st4" x1="250.6" y1="444.3" x2="250.6" y2="372.6"/>
	</g>
</g>
</svg>
