<svg width="2651" height="327" viewBox="0 0 2651 327" fill="none" xmlns="http://www.w3.org/2000/svg">
<path d="M1738.68 61.2712C1720.06 50.5226 1698.94 44.8639 1677.44 44.8639C1655.94 44.8639 1634.83 50.5226 1616.21 61.2712C1597.59 72.0199 1582.13 87.4797 1571.38 106.097C1560.63 124.714 1554.98 145.833 1554.98 167.33C1554.98 188.827 1560.63 209.946 1571.38 228.563C1582.13 247.18 1597.59 262.64 1616.21 273.389C1634.83 284.138 1655.95 289.796 1677.44 289.796C1698.94 289.796 1720.06 284.137 1738.68 273.389" stroke="black" stroke-width="40" stroke-linecap="square"/>
<path d="M228.525 61.2331C209.908 50.4845 188.789 44.8258 167.292 44.8258C145.795 44.8258 124.676 50.4845 106.059 61.2331C87.4416 71.9818 71.9817 87.4417 61.2331 106.059C50.4844 124.676 44.8257 145.795 44.8257 167.292C44.8257 188.789 50.4844 209.908 61.2331 228.525C71.9817 247.142 87.4416 262.602 106.059 273.351C124.676 284.099 145.795 289.758 167.292 289.758C188.789 289.758 209.908 284.099 228.525 273.351" stroke="black" stroke-width="40" stroke-linecap="square"/>
<circle cx="460" cy="167.998" r="123" stroke="black" stroke-width="40"/>
<circle cx="1060" cy="167.998" r="123" stroke="black" stroke-width="40"/>
<line x1="1889" y1="24.9976" x2="1889" y2="309.998" stroke="black" stroke-width="40"/>
<line x1="2051.84" y1="24.9976" x2="2051.84" y2="309.998" stroke="black" stroke-width="40"/>
<line x1="2051" y1="176.681" x2="1869" y2="176.681" stroke="black" stroke-width="40"/>
<line x1="2343.75" y1="165.784" x2="2177" y2="165.784" stroke="black" stroke-width="40"/>
<line x1="2343.75" y1="44.9976" x2="2177" y2="44.9976" stroke="black" stroke-width="40"/>
<line x1="2343.75" y1="289.998" x2="2177" y2="289.998" stroke="black" stroke-width="40"/>
<line x1="2489" y1="157.087" x2="2489" y2="309.997" stroke="black" stroke-width="40"/>
<line x1="2586.82" y1="177.087" x2="2469" y2="177.087" stroke="black" stroke-width="40"/>
<line x1="2651" y1="43.9976" x2="2469" y2="43.9976" stroke="black" stroke-width="40"/>
<line x1="719" y1="24.9976" x2="719" y2="297.998" stroke="black" stroke-width="40"/>
<line x1="820" y1="290.316" x2="699" y2="290.316" stroke="black" stroke-width="40"/>
<line x1="1343.82" y1="204.553" x2="1436.12" y2="296.855" stroke="black" stroke-width="40"/>
<path d="M1328 44.9976C1454.71 44.9976 1454.71 214.499 1328 214.499" stroke="black" stroke-width="40"/>
</svg>
