<svg width="484" height="745" viewBox="0 0 484 745" fill="none" xmlns="http://www.w3.org/2000/svg">
<mask id="mask0_758_2336" style="mask-type:alpha" maskUnits="userSpaceOnUse" x="0" y="0" width="484" height="745">
<path d="M164.901 449C170.893 449 175.75 444.523 175.75 439C175.75 433.477 170.893 429 164.901 429C158.91 429 154.052 433.477 154.052 439C154.052 444.523 158.91 449 164.901 449Z" fill="black"/>
<path d="M226.739 439C226.739 444.523 221.882 449 215.89 449C209.899 449 205.042 444.523 205.042 439C205.042 433.477 209.899 429 215.89 429C221.882 429 226.739 433.477 226.739 439Z" fill="black"/>
<path d="M277.728 439C277.728 444.523 272.871 449 266.88 449C260.888 449 256.031 444.523 256.031 439C256.031 433.477 260.888 429 266.88 429C272.871 429 277.728 433.477 277.728 439Z" fill="black"/>
<path d="M328.718 439C328.718 444.523 323.86 449 317.869 449C311.877 449 307.02 444.523 307.02 439C307.02 433.477 311.877 429 317.869 429C323.86 429 328.718 433.477 328.718 439Z" fill="black"/>
<path fill-rule="evenodd" clip-rule="evenodd" d="M240.843 0C311.744 0 370.235 48.98 378.664 112.234C437.416 115.854 483.855 160.928 483.855 216C483.855 272.098 435.669 317.823 375.367 319.924C373.927 319.975 372.481 320 371.028 320C369.575 320 368.128 319.975 366.688 319.924V595.823C373.69 591.823 381.181 586.942 389.32 581.107C394.05 577.716 400.866 578.502 404.544 582.861C408.223 587.221 407.371 593.504 402.641 596.894C384.643 609.797 368.231 619.328 352.122 624.88C328.038 637.649 278.807 661 240.843 661C188.591 661 114.997 616.767 114.997 616.767V616.087C104.301 610.805 93.2204 604.064 81.4343 596.047C76.6131 592.768 75.5887 586.507 79.1462 582.063C82.7037 577.619 89.496 576.675 94.3171 579.954C101.703 584.978 108.561 589.307 114.997 592.982V319.981C114.275 319.994 113.552 320 112.827 320C112.102 320 111.379 319.994 110.657 319.981C49.3456 318.915 0 272.769 0 216C0 161.614 45.2893 116.978 103.001 112.389C111.355 49.0598 169.883 0 240.843 0ZM144.066 310.465C141.538 308.923 139.079 307.292 136.694 305.578V390H344.991V299.154L367.508 299.939C368.675 299.979 369.848 300 371.028 300C421.357 300 462.157 262.392 462.157 216C462.157 171.527 424.649 135.112 377.217 132.19L376.711 132.159C377.814 146.261 374.556 158.87 368.112 168.455C359.444 181.35 343.915 189.581 326.991 184.51C321.293 182.803 318.175 177.161 320.028 171.909C321.88 166.656 328.001 163.782 333.699 165.49C338.471 166.92 344.64 165.401 349.669 157.921C354.679 150.468 357.478 137.888 352.945 122.052C351.812 118.095 353.417 114.065 356.682 111.67C348.155 59.78 299.523 20 240.843 20C180.987 20 131.586 61.3897 124.54 114.803L122.414 130.919L104.866 132.315C58.2755 136.02 21.6975 172.083 21.6975 216C21.6975 262.392 62.4977 300 112.827 300C113.415 300 114.002 299.995 114.588 299.985L129.221 299.73C108.018 281.698 94.3841 256.924 94.3842 232.5C94.3843 226.977 99.2414 222.5 105.233 222.5C111.225 222.5 116.082 226.977 116.082 232.5C116.082 254.264 131.402 278.76 156.038 293.785C180.18 308.509 212.33 313.522 245.615 297.622C250.935 295.081 257.482 296.996 260.239 301.899C262.996 306.803 260.919 312.838 255.599 315.379C214.57 334.978 174.032 328.741 144.066 310.465ZM136.694 462V414H344.991V462H136.694ZM344.991 605.565V489H136.694V603.517C147.163 607.557 156.604 609.462 165.728 609.499C185.465 609.579 206.243 600.915 235.268 580.107C239.997 576.716 246.813 577.502 250.492 581.861C250.776 582.199 251.034 582.547 251.265 582.906C279.938 602.057 300.561 610.421 319.781 610.499C327.216 610.529 334.799 609.318 342.914 606.685L343.444 606.401C343.976 606.115 344.491 605.836 344.991 605.565ZM297.428 627.719C279.575 623.392 261.445 614.152 241.343 600.962C221.059 614.771 202.653 623.987 184.156 627.68C204.049 635.352 224.517 641 240.843 641C257.14 641 277.567 635.371 297.428 627.719Z" fill="black"/>
<path d="M241.928 706.002C241.928 708.696 243.375 711.39 246.268 712.929L303.224 743.24C309.01 746.319 316.242 742.47 316.242 736.312V675.69C316.242 669.531 309.01 665.682 303.224 668.762L246.268 699.073C243.375 700.612 241.928 703.306 241.928 706C241.928 703.306 240.481 700.612 237.589 699.073L180.633 668.762C174.847 665.682 167.614 669.531 167.614 675.69V736.312C167.614 742.47 174.847 746.319 180.633 743.24L237.589 712.929C240.481 711.39 241.928 708.696 241.928 706.002Z" fill="black"/>
</mask>
<g mask="url(#mask0_758_2336)">
<rect x="-40.1375" y="-21" width="560" height="785" fill="url(#paint0_angular_758_2336)"/>
</g>
<defs>
<radialGradient id="paint0_angular_758_2336" cx="0" cy="0" r="1" gradientUnits="userSpaceOnUse" gradientTransform="translate(240 372) rotate(38.826) scale(430.651 465.262)">
<stop offset="0.244792" stop-color="#4314CD"/>
<stop offset="0.677083" stop-color="#D142C3"/>
<stop offset="0.838542" stop-color="#E06F4B"/>
</radialGradient>
</defs>
</svg>
