<svg width="66" height="66" viewBox="0 0 66 66" fill="none" xmlns="http://www.w3.org/2000/svg">
<path d="M66 33C66 41.7521 62.5232 50.1458 56.3345 56.3345C50.1458 62.5232 41.7521 66 33 66C24.2479 66 15.8542 62.5232 9.66548 56.3345C3.47678 50.1458 1.32154e-06 41.7521 0 33L33 33H66Z" fill="#84EA8F"/>
<path d="M64 33C64 41.2217 60.7339 49.1067 54.9203 54.9203C49.1067 60.7339 41.2217 64 33 64C24.7783 64 16.8933 60.7339 11.0797 54.9203C5.26606 49.1067 2 41.2217 2 33L33 33H64Z" fill="#D0FFDD"/>
<path d="M63 33C63 40.9565 59.8393 48.5871 54.2132 54.2132C48.5871 59.8393 40.9565 63 33 63C25.0435 63 17.4129 59.8393 11.7868 54.2132C6.16071 48.5871 3 40.9565 3 33L33 33H63Z" fill="#FF9E9E"/>
<circle cx="12" cy="42" r="1" fill="#2C2C2C"/>
<circle cx="28" cy="44" r="1" fill="#2C2C2C"/>
<circle cx="21" cy="50" r="1" fill="#2C2C2C"/>
<circle cx="23" cy="41" r="1" fill="#2C2C2C"/>
<circle cx="39" cy="52" r="1" fill="#2C2C2C"/>
<circle cx="42" cy="43" r="1" fill="#2C2C2C"/>
<circle cx="31" cy="55" r="1" fill="#2C2C2C"/>
<circle cx="55" cy="37" r="1" fill="#2C2C2C"/>
<circle cx="53" cy="48" r="1" fill="#2C2C2C"/>
<circle cx="49" cy="41" r="1" fill="#2C2C2C"/>
<circle cx="45" cy="56" r="1" fill="#2C2C2C"/>
<circle cx="24" cy="58" r="1" fill="#2C2C2C"/>
</svg>
