<svg width="45" height="25" viewBox="0 0 45 25" fill="none" xmlns="http://www.w3.org/2000/svg">
<ellipse cx="22" cy="20.5" rx="22" ry="3.5" fill="#FFA8A8"/>
<ellipse cx="22" cy="17.5" rx="22" ry="3.5" fill="#FFC8C8"/>
<ellipse cx="22" cy="13.5" rx="22" ry="3.5" fill="#FFA8A8"/>
<ellipse cx="22" cy="10.5" rx="22" ry="3.5" fill="#FFC8C8"/>
<ellipse cx="22" cy="6.5" rx="22" ry="3.5" fill="#FFA8A8"/>
<ellipse cx="22" cy="3.5" rx="22" ry="3.5" fill="#FFC8C8"/>
<path d="M36.5 2.00002C40 4.00002 39.5 2 41.5 4C43.5 6 40 10 41.5 15C43 20 47.5 22.5 42.5 24C37.5 25.5 27.5 24.5 26.5 22C25.5 19.5 32.5 16 32.5 10C32.5 4 34 4 31 4C28 4 30 5.99998 22 4C20.4174 4 19.3913 4.06184 18.7561 4.15291C21.0276 5.57917 15.876 4.56576 18.7561 4.15291C18.6794 4.10476 18.5942 4.05382 18.5 4C15 2.00002 17.5 0.999995 22 0.999995C26.5 0.999995 27 -2.46167e-05 29 0.999995C30.5023 1.75113 31.2405 1.75246 31.463 1.64613C31.4752 1.63878 31.4875 1.63147 31.5 1.62418C32.437 1.07649 34.2127 0.692978 36.5 2.00002Z" fill="#FF93A6"/>
</svg>
