<svg width="39" height="33" viewBox="0 0 39 33" fill="none" xmlns="http://www.w3.org/2000/svg">
<path d="M0.985596 17.125C0.985596 17.056 1.04156 17 1.1106 17H38.8606C38.9296 17 38.9856 17.056 38.9856 17.125V20.8719C38.9856 20.9421 38.9277 20.9986 38.8575 20.9968L1.1075 20.0618C1.03969 20.0602 0.985596 20.0047 0.985596 19.9369V17.125Z" fill="#FFE9D6"/>
<path d="M0.985596 23.125C0.985596 23.056 1.04156 23 1.1106 23H38.8606C38.9296 23 38.9856 23.056 38.9856 23.125V26.8719C38.9856 26.9421 38.9277 26.9986 38.8575 26.9968L1.1075 26.0618C1.03969 26.0602 0.985596 26.0047 0.985596 25.9369V23.125Z" fill="#FFE9D6"/>
<path d="M0.985596 29.125C0.985596 29.056 1.04156 29 1.1106 29H38.8606C38.9296 29 38.9856 29.056 38.9856 29.125V32.8719C38.9856 32.9421 38.9277 32.9986 38.8575 32.9968L1.1075 32.0618C1.03969 32.0602 0.985596 32.0047 0.985596 31.9369V29.125Z" fill="#FFE9D6"/>
<path d="M0.985596 20.125C0.985596 20.056 1.04156 20 1.1106 20H38.8606C38.9296 20 38.9856 20.056 38.9856 20.125V23.8719C38.9856 23.9421 38.9277 23.9986 38.8575 23.9968L1.1075 23.0618C1.03969 23.0602 0.985596 23.0047 0.985596 22.9369V20.125Z" fill="#E3FDFF"/>
<path d="M0.985596 26.125C0.985596 26.056 1.04156 26 1.1106 26H38.8606C38.9296 26 38.9856 26.056 38.9856 26.125V29.8719C38.9856 29.9421 38.9277 29.9986 38.8575 29.9968L1.1075 29.0618C1.03969 29.0602 0.985596 29.0047 0.985596 28.9369V26.125Z" fill="#E3FDFF"/>
<path d="M30.9235 10.014C30.9625 10.0052 31.0034 10.0156 31.0334 10.042L38.7213 16.781C38.8081 16.857 38.7543 17 38.6389 17H1.12057C0.97146 17 0.947583 16.7859 1.09303 16.7531L30.9235 10.014Z" fill="#FFFEF3"/>
<path d="M4.9856 19.2753C3.3856 18.4753 1.65226 19.6086 0.985596 20.2753V23.2753L38.9856 24V20C36.4856 22 35.4856 21.5 32.27 19.7753C30.0232 18.5702 29.9856 20.7753 27.4856 21.2753C24.9856 21.7753 25.4856 20.2753 23.4856 19.7753C21.4856 19.2753 21.9856 20.7753 19.4856 21.2753C16.9856 21.7753 15.9856 20.2753 14.4856 19.2753C12.9856 18.2753 12.4856 20.7753 9.9856 21.2753C7.4856 21.7753 6.9856 20.2753 4.9856 19.2753Z" fill="#89BFFF"/>
<path d="M4.9856 25.2752C3.3856 24.4752 1.65226 25.6085 0.985596 26.2752V29.2751L38.9856 29.9999V25.9999C36.4856 27.9999 35.4856 27.4999 32.27 25.7751C30.0232 24.5701 29.9856 26.7751 27.4856 27.2751C24.9856 27.7751 25.4856 26.2752 23.4856 25.7751C21.4856 25.2751 21.9856 26.7751 19.4856 27.2751C16.9856 27.7751 15.9856 26.2752 14.4856 25.2752C12.9856 24.2752 12.4856 26.7751 9.9856 27.2751C7.4856 27.7751 6.9856 26.2752 4.9856 25.2752Z" fill="#89BFFF"/>
<circle cx="22.9856" cy="11" r="5" fill="#89BFFF"/>
<circle cx="24" cy="11" r="4" fill="#479CFF"/>
<ellipse cx="21.5575" cy="7.88292" rx="1.5" ry="0.470257" transform="rotate(-16.7663 21.5575 7.88292)" fill="#D5F0FF" fill-opacity="0.91"/>
<path fill-rule="evenodd" clip-rule="evenodd" d="M23.2018 5.80192C24.4779 6.33042 25.9933 6.18284 27.1686 5.28245C28.3439 4.38205 28.8809 2.95736 28.7029 1.58766C27.4267 1.05916 25.9114 1.20674 24.7361 2.10713C23.5607 3.00752 23.0238 4.43221 23.2018 5.80192Z" fill="#5CC98E"/>
<path fill-rule="evenodd" clip-rule="evenodd" d="M23.697 5.39078C23.5849 4.63774 23.8245 3.84346 24.4122 3.27235C24.9325 2.76673 25.6198 2.53875 26.2907 2.58578C26.4028 3.33883 26.1631 4.1331 25.5755 4.70422C25.0552 5.20984 24.3679 5.43782 23.697 5.39078Z" fill="#3A9865"/>
</svg>
