<svg width="35" height="33" viewBox="0 0 35 33" fill="none" xmlns="http://www.w3.org/2000/svg">
<path d="M1 24C0.44772 24 4.364e-06 24.4477 4.45856e-06 25C4.55312e-06 25.5523 0.44772 26 1 26L1 24ZM12.1399 25L12.1399 26L12.6681 26L12.9658 25.5638L12.1399 25ZM23.7432 8V7H23.2151L22.9173 7.43625L23.7432 8ZM34.7071 8.70711C35.0976 8.31658 35.0976 7.68342 34.7071 7.29289L28.3431 0.928932C27.9526 0.538408 27.3195 0.538408 26.9289 0.928932C26.5384 1.31946 26.5384 1.95262 26.9289 2.34315L32.5858 8L26.9289 13.6569C26.5384 14.0474 26.5384 14.6805 26.9289 15.0711C27.3195 15.4616 27.9526 15.4616 28.3431 15.0711L34.7071 8.70711ZM1 7.00001C0.447715 7.00001 -9.65645e-08 7.44772 0 8.00001C9.65646e-08 8.55229 0.447715 9.00001 1 9.00001L1 7.00001ZM12.1399 8.00001L12.9658 7.43626L12.6681 7.00001L12.1399 7.00001L12.1399 8.00001ZM23.7432 25L22.9173 25.5637L23.2151 26L23.7433 26L23.7432 25ZM34.7071 25.7071C35.0976 25.3166 35.0976 24.6834 34.7071 24.2929L28.3432 17.9289C27.9526 17.5384 27.3195 17.5384 26.9289 17.9289C26.5384 18.3195 26.5384 18.9526 26.9289 19.3431L32.5858 25L26.9289 30.6569C26.5384 31.0474 26.5384 31.6805 26.9289 32.0711C27.3195 32.4616 27.9526 32.4616 28.3432 32.0711L34.7071 25.7071ZM1 26L12.1399 26L12.1399 24L1 24L1 26ZM12.9658 25.5638L18.7675 17.0638L17.1156 15.9363L11.3139 24.4363L12.9658 25.5638ZM18.7675 17.0638L24.5692 8.56375L22.9173 7.43625L17.1156 15.9363L18.7675 17.0638ZM23.7432 9H34V7H23.7432V9ZM1 9.00001L12.1399 9.00001L12.1399 7.00001L1 7.00001L1 9.00001ZM11.3139 8.56376L17.1156 17.0638L18.7675 15.9363L12.9658 7.43626L11.3139 8.56376ZM17.1156 17.0638L22.9173 25.5637L24.5692 24.4362L18.7675 15.9363L17.1156 17.0638ZM23.7433 26L34 26L34 24L23.7432 24L23.7433 26Z" fill="black"/>
</svg>
