<svg width="67" height="59" viewBox="0 0 67 59" fill="none" xmlns="http://www.w3.org/2000/svg">
<path d="M61.6976 45.9732C62.1966 45.3119 62.0651 44.3714 61.4039 43.8723L50.628 35.7402C49.9667 35.2412 49.0261 35.3727 48.5271 36.034C48.0281 36.6952 48.1596 37.6358 48.8209 38.1349L58.3994 45.3634L51.1709 54.9419C50.6718 55.6032 50.8034 56.5438 51.4646 57.0428C52.1259 57.5418 53.0665 57.4103 53.5655 56.7491L61.6976 45.9732ZM9.75911 16.0473C19.3173 14.3731 24.5188 15.7932 27.7112 18.3588C30.9912 20.995 32.5038 25.0777 34.1097 29.719C35.6565 34.1893 37.2989 39.2221 41.1364 42.6776C45.0841 46.2323 51.0535 47.9051 60.708 46.5552L60.2926 43.5841C51.1221 44.8663 46.186 43.1876 43.1439 40.4482C39.9915 37.6096 38.5599 33.4057 36.9448 28.738C35.3888 24.2411 33.6516 19.2843 29.5905 16.0205C25.4418 12.6862 19.2108 11.346 9.2415 13.0923L9.75911 16.0473Z" fill="white"/>
<path d="M9.50031 39.9264C9.50031 39.9264 23.192 44.3032 31.2724 35.5702" stroke="white" stroke-width="3"/>
<path d="M62.7977 15.9629C63.4784 15.4908 63.6475 14.5562 63.1754 13.8755L55.4817 2.78239C55.0096 2.10166 54.075 1.93255 53.3943 2.40467C52.7135 2.8768 52.5444 3.81137 53.0165 4.4921L59.8554 14.3526L49.9948 21.1915C49.3141 21.6636 49.145 22.5982 49.6171 23.2789C50.0893 23.9596 51.0238 24.1287 51.7046 23.6566L62.7977 15.9629ZM61.9428 14.7303C62.2099 13.2543 62.2094 13.2542 62.2088 13.2541C62.2086 13.2541 62.208 13.254 62.2075 13.2539C62.2064 13.2537 62.2051 13.2535 62.2036 13.2532C62.2007 13.2527 62.1968 13.252 62.192 13.2511C62.1824 13.2494 62.1692 13.2471 62.1525 13.2443C62.1192 13.2386 62.0718 13.2307 62.011 13.2209C61.8895 13.2014 61.7143 13.1746 61.4905 13.1437C61.0431 13.082 60.4005 13.004 59.6038 12.9355C58.0125 12.7989 55.7939 12.6999 53.2782 12.8507C48.2891 13.1499 41.9176 14.4449 37.0276 18.6103L38.973 20.8941C43.1403 17.3442 48.74 16.1283 53.4578 15.8453C55.7956 15.7052 57.8644 15.7972 59.3472 15.9246C60.0874 15.9881 60.6786 16.0602 61.0806 16.1156C61.2815 16.1433 61.4349 16.1669 61.5358 16.183C61.5863 16.1911 61.6236 16.1974 61.6471 16.2014C61.6589 16.2034 61.6672 16.2049 61.672 16.2057C61.6744 16.2061 61.6759 16.2064 61.6765 16.2065C61.6769 16.2066 61.6769 16.2066 61.6768 16.2066C61.6767 16.2066 61.6765 16.2065 61.6764 16.2065C61.6761 16.2064 61.6757 16.2064 61.9428 14.7303Z" fill="white"/>
</svg>
