<svg width="25" height="25" viewBox="0 0 33 33" fill="none" xmlns="http://www.w3.org/2000/svg">
<path d="M1 7.03442C0.447715 7.03442 0 7.48214 0 8.03442C0 8.58671 0.447715 9.03442 1 9.03442V7.03442ZM31.9471 8.74153C32.3376 8.35101 32.3376 7.71784 31.9471 7.32732L25.5831 0.963356C25.1926 0.572832 24.5595 0.572832 24.1689 0.963356C23.7784 1.35388 23.7784 1.98705 24.1689 2.37757L29.8258 8.03442L24.1689 13.6913C23.7784 14.0818 23.7784 14.715 24.1689 15.1055C24.5595 15.496 25.1926 15.496 25.5831 15.1055L31.9471 8.74153ZM1 9.03442H31.24V7.03442H1V9.03442Z" fill="black"/>
<path d="M31.24 26.1033C31.7923 26.1033 32.24 25.6556 32.24 25.1033C32.24 24.551 31.7923 24.1033 31.24 24.1033L31.24 26.1033ZM0.292883 24.3962C-0.097641 24.7867 -0.097641 25.4199 0.292883 25.8104L6.65685 32.1743C7.04737 32.5649 7.68054 32.5649 8.07106 32.1743C8.46158 31.7838 8.46158 31.1507 8.07106 30.7601L2.4142 25.1033L8.07106 19.4464C8.46158 19.0559 8.46158 18.4227 8.07106 18.0322C7.68053 17.6417 7.04737 17.6417 6.65684 18.0322L0.292883 24.3962ZM31.24 24.1033L0.99999 24.1033L0.999991 26.1033L31.24 26.1033L31.24 24.1033Z" fill="black"/>
</svg>
