<svg width="66" height="66" viewBox="0 0 66 66" fill="none" xmlns="http://www.w3.org/2000/svg">
<circle cx="33" cy="33" r="31.5" fill="white" stroke="black" stroke-width="3"/>
<mask id="mask0_887_2326" style="mask-type:alpha" maskUnits="userSpaceOnUse" x="0" y="0" width="66" height="66">
<circle cx="33" cy="33" r="32.5" fill="#ECD7D7" stroke="black"/>
</mask>
<g mask="url(#mask0_887_2326)">
<mask id="mask1_887_2326" style="mask-type:alpha" maskUnits="userSpaceOnUse" x="4" y="39" width="58" height="29">
<path d="M4 68C4 60.3087 7.05535 52.9325 12.4939 47.4939C17.9325 42.0553 25.3087 39 33 39C40.6913 39 48.0675 42.0553 53.5061 47.4939C58.9447 52.9325 62 60.3087 62 68L4 68Z" fill="#161616"/>
</mask>
<g mask="url(#mask1_887_2326)">
<path d="M4 68C4 60.3087 7.05535 52.9325 12.4939 47.4939C17.9325 42.0554 25.3087 39 33 39C40.6913 39 48.0675 42.0553 53.5061 47.4939C58.9446 52.9325 62 60.3087 62 68L4 68Z" fill="#161616"/>
<path d="M55.1765 30.4706C55.1765 36.3522 52.84 41.9928 48.6811 46.1517C44.5222 50.3106 38.8816 52.6471 33 52.6471C27.1184 52.6471 21.4778 50.3106 17.3189 46.1517C13.16 41.9928 10.8235 36.3521 10.8235 30.4706L55.1765 30.4706Z" fill="#C4C4C4"/>
</g>
<circle cx="33" cy="22" r="14" fill="#C4C4C4"/>
</g>
</svg>
