<svg width="1100" height="256" viewBox="0 0 1100 256" fill="none" xmlns="http://www.w3.org/2000/svg">
<rect width="1100" height="256" fill="white"/>
<rect x="25" y="25" width="1050" height="206" fill="url(#paint0_radial_2009_5573)" fill-opacity="0.91"/>
<rect x="25" y="25" width="1050" height="206" fill="url(#paint1_radial_2009_5573)"/>
<rect x="25" y="25" width="1050" height="206" fill="url(#paint2_radial_2009_5573)" fill-opacity="0.93"/>
<path d="M984 80H923.72V91.6311H984V80Z" fill="black"/>
<path fill-rule="evenodd" clip-rule="evenodd" d="M258.327 175C284.485 175 305.69 153.807 305.69 127.665C305.69 101.523 284.485 80.3308 258.327 80.3308C232.17 80.3308 210.965 101.523 210.965 127.665C210.965 153.807 232.17 175 258.327 175ZM258.327 163.369C278.057 163.369 294.052 147.384 294.052 127.665C294.052 107.947 278.057 91.9619 258.327 91.9619C238.597 91.9619 222.603 107.947 222.603 127.665C222.603 147.384 238.597 163.369 258.327 163.369Z" fill="black"/>
<path d="M121.214 104.255C117.143 111.302 115 119.295 115 127.432C115 135.568 117.143 143.562 121.214 150.608C125.285 157.655 131.14 163.506 138.19 167.575C145.241 171.643 153.239 173.785 161.381 173.785C169.522 173.785 177.52 171.643 184.571 167.575L189.61 164.667L183.791 154.594L178.752 157.502C173.47 160.549 167.479 162.154 161.381 162.154C155.282 162.154 149.291 160.549 144.009 157.502C138.728 154.454 134.342 150.071 131.293 144.793C128.243 139.514 126.638 133.527 126.638 127.432C126.638 121.337 128.243 115.349 131.293 110.071C134.342 104.792 138.728 100.409 144.009 97.3614C149.291 94.3139 155.282 92.7096 161.381 92.7096C167.479 92.7096 173.47 94.3139 178.752 97.3614L183.791 100.269L189.61 90.1964L184.571 87.2886C177.52 83.2202 169.522 81.0784 161.381 81.0784C153.239 81.0784 145.241 83.2202 138.19 87.2886C131.14 91.3569 125.285 97.2084 121.214 104.255Z" fill="black"/>
<path d="M621.385 104.268C617.314 111.314 615.171 119.307 615.171 127.444C615.171 135.581 617.314 143.574 621.385 150.621C625.456 157.667 631.311 163.519 638.361 167.587C645.412 171.655 653.41 173.797 661.552 173.797C669.693 173.797 677.691 171.655 684.742 167.587L689.781 164.679L683.962 154.606L678.923 157.514C673.641 160.562 667.65 162.166 661.552 162.166C655.453 162.166 649.462 160.562 644.18 157.514C638.899 154.467 634.513 150.084 631.464 144.805C628.414 139.527 626.809 133.539 626.809 127.444C626.809 121.349 628.414 115.361 631.464 110.083C634.513 104.805 638.899 100.421 644.18 97.3739C649.462 94.3264 655.453 92.722 661.552 92.722C667.65 92.7221 673.641 94.3264 678.923 97.3739L683.962 100.282L689.781 90.2089L684.742 87.3011C677.691 83.2327 669.693 81.0909 661.552 81.0909C653.41 81.0909 645.412 83.2327 638.361 87.3011C631.311 91.3694 625.456 97.2209 621.385 104.268Z" fill="black"/>
<path fill-rule="evenodd" clip-rule="evenodd" d="M504.413 127.665C504.413 153.807 483.209 175 457.051 175C430.893 175 409.689 153.807 409.689 127.665C409.689 101.523 430.893 80.3308 457.051 80.3308C483.209 80.3308 504.413 101.523 504.413 127.665ZM492.776 127.665C492.776 147.384 476.781 163.369 457.051 163.369C437.321 163.369 421.327 147.384 421.327 127.665C421.327 107.947 437.321 91.9619 457.051 91.9619C476.781 91.9619 492.776 107.947 492.776 127.665Z" fill="black"/>
<path d="M724.997 174.669H736.635V135.551H778.931V174.669H790.569V80.3308L778.931 80.3308V123.919H736.635V80.3308L724.997 80.3308V174.669Z" fill="black"/>
<path d="M827.008 120.313H882.236V131.944H827.008V120.313Z" fill="black"/>
<path d="M882.236 80.3308H827.008V91.9619H882.236V80.3308Z" fill="black"/>
<path d="M827.008 161.428H882.236V173.06H827.008V161.428Z" fill="black"/>
<path d="M923.72 174.669H935.358V135.685H962.744V124.054H923.72V174.669Z" fill="black"/>
<path d="M337.486 80.3308L349.124 80.3308V161.534H377.561V173.165H337.486V80.3308Z" fill="black"/>
<path d="M563.631 145.248C567.451 143.501 570.768 141.178 573.542 138.397C579.948 131.973 583.108 123.45 583.108 115.005C583.108 106.559 579.948 98.0357 573.542 91.6124C567.08 85.133 557.667 81.1356 545.814 81.1356V92.7667C554.945 92.7667 561.269 95.7826 565.299 99.8232C569.385 103.92 571.47 109.424 571.47 115.005C571.47 120.585 569.385 126.089 565.299 130.186C561.269 134.226 554.945 137.242 545.814 137.242V148.874C547.448 148.874 549.036 148.798 550.576 148.65L576.942 175L585.171 166.776L563.631 145.248Z" fill="black"/>
<defs>
<radialGradient id="paint0_radial_2009_5573" cx="0" cy="0" r="1" gradientUnits="userSpaceOnUse" gradientTransform="translate(257.617 -4.48224) rotate(24.1511) scale(745.728 2555.75)">
<stop offset="0.189789" stop-color="#B0C1FF"/>
<stop offset="1" stop-color="#C9B0DA"/>
</radialGradient>
<radialGradient id="paint1_radial_2009_5573" cx="0" cy="0" r="1" gradientUnits="userSpaceOnUse" gradientTransform="translate(25 231) rotate(-14.4277) scale(687.309 2210.35)">
<stop stop-color="#9FFAFE"/>
<stop offset="1" stop-color="#B0C1FF"/>
</radialGradient>
<radialGradient id="paint2_radial_2009_5573" cx="0" cy="0" r="1" gradientUnits="userSpaceOnUse" gradientTransform="translate(1029.57 45.7004) rotate(139.958) scale(572.343 2244.48)">
<stop offset="0.308364" stop-color="#FF9585"/>
<stop offset="0.887932" stop-color="#B0C1FF" stop-opacity="0.25"/>
</radialGradient>
</defs>
</svg>
